<svg xmlns="http://www.w3.org/2000/svg" viewBox="0 0 512 512">
  <defs>
    <linearGradient id="bgGradient" x1="0%" y1="0%" x2="100%" y2="100%">
      <stop offset="0%" style="stop-color:#3b82f6"/>
      <stop offset="100%" style="stop-color:#8b5cf6"/>
    </linearGradient>
  </defs>

  <!-- Rounded square background (30% border radius = ~77px on 512) -->
  <rect x="0" y="0" width="512" height="512" rx="154" ry="154" fill="url(#bgGradient)"/>

  <!-- MessagesSquare icon - white, centered -->
  <g transform="translate(131, 131)" fill="none" stroke="white" stroke-width="16" stroke-linecap="round" stroke-linejoin="round">
    <!-- Main chat bubble -->
    <path d="M145 95a21 21 0 0 1-21 21H62L20 158V52a21 21 0 0 1 21-21h83a21 21 0 0 1 21 21v43Z"/>
    <!-- Second chat bubble -->
    <path d="M187 95h21a21 21 0 0 1 21 21v115l-42-42H125a21 21 0 0 1-21-21v-10"/>
  </g>
</svg>
