<svg xmlns="http://www.w3.org/2000/svg" viewBox="0 0 32 32" width="32" height="32">
  <defs>
    <linearGradient id="grad" x1="0%" y1="0%" x2="100%" y2="100%">
      <stop offset="0%" style="stop-color:hsl(221, 83%, 53%);stop-opacity:1" />
      <stop offset="100%" style="stop-color:hsl(271, 81%, 56%);stop-opacity:1" />
    </linearGradient>
  </defs>
  <!-- Squircle background (30% border radius = ~4.8 on 32px) -->
  <rect x="1" y="1" width="30" height="30" rx="9" ry="9" fill="url(#grad)"/>
  <!-- MessagesSquare icon - two overlapping chat bubbles -->
  <g transform="translate(6, 6)" stroke="white" stroke-width="1.5" fill="none" stroke-linecap="round" stroke-linejoin="round">
    <!-- Back message bubble -->
    <path d="M14 6.5a2 2 0 0 1 2 2v5a2 2 0 0 1-2 2H7l-3 3v-3a2 2 0 0 1-2-2v-5a2 2 0 0 1 2-2h10z"/>
    <!-- Front message bubble -->
    <path d="M6 6.5V4a2 2 0 0 1 2-2h10a2 2 0 0 1 2 2v5a2 2 0 0 1-2 2h-1"/>
  </g>
</svg>
